<svg xmlns="http://www.w3.org/2000/svg" version="1.1" xmlns:xlink="http://www.w3.org/1999/xlink" xmlns:svgjs="http://svgjs.dev/svgjs" width="1000" height="1000" viewBox="0 0 1000 1000"><rect width="1000" height="1000" fill="#000000"></rect><g transform="matrix(0.7,0,0,0.7,149.57575757575756,443.7608789637518)"><svg viewBox="0 0 396 64" data-background-color="#000000" preserveAspectRatio="xMidYMid meet" height="161" width="1000" xmlns="http://www.w3.org/2000/svg" xmlns:xlink="http://www.w3.org/1999/xlink"><defs></defs><g id="tight-bounds" transform="matrix(1,0,0,1,0.2400000000000091,-0.06296587116338515)"><svg viewBox="0 0 395.52 64.12593174232677" height="64.12593174232677" width="395.52"><g><svg viewBox="0 0 446.6887387549708 72.42195482268228" height="64.12593174232677" width="395.52"><g transform="matrix(1,0,0,1,0,10.009112424842488)"><svg viewBox="0 0 395.52 52.403729972997304" height="52.403729972997304" width="395.52"><g><svg viewBox="0 0 395.52 52.403729972997304" height="52.403729972997304" width="395.52"><g><svg viewBox="0 0 395.52 52.403729972997304" height="52.403729972997304" width="395.52"><g transform="matrix(1,0,0,1,0,0)"><svg width="395.52" viewBox="2.0999999046325684 -36.099998474121094 278.8799743652344 36.79999923706055" height="52.403729972997304" data-palette-color="#89939e"><g class="undefined-text-0" data-fill-palette-color="primary" id="text-0"><path d="M41.45-35.4L41.45-35.4 41.45-34.4Q39.75-34.35 38.88-34.02 38-33.7 37.7-32.83 37.4-31.95 37.4-30.1L37.4-30.1 37.4-5.3Q37.4-3.5 37.7-2.6 38-1.7 38.88-1.4 39.75-1.1 41.45-1L41.45-1 41.45 0Q40.3-0.1 38.58-0.13 36.85-0.15 35.1-0.15L35.1-0.15Q33.15-0.15 31.45-0.13 29.75-0.1 28.7 0L28.7 0 28.7-1Q30.4-1.1 31.28-1.4 32.15-1.7 32.45-2.6 32.75-3.5 32.75-5.3L32.75-5.3 32.75-32.8 32.95-32.65 20.7 0.25 19.9 0.25 7.3-32.2 7.3-5.8Q7.3-4 7.63-2.98 7.95-1.95 8.93-1.53 9.9-1.1 11.85-1L11.85-1 11.85 0Q10.95-0.1 9.5-0.13 8.05-0.15 6.75-0.15L6.75-0.15Q5.5-0.15 4.23-0.13 2.95-0.1 2.1 0L2.1 0 2.1-1Q3.8-1.1 4.67-1.53 5.55-1.95 5.85-2.98 6.15-4 6.15-5.8L6.15-5.8 6.15-30.1Q6.15-31.95 5.85-32.83 5.55-33.7 4.67-34.02 3.8-34.35 2.1-34.4L2.1-34.4 2.1-35.4Q2.95-35.35 4.23-35.3 5.5-35.25 6.75-35.25L6.75-35.25Q7.85-35.25 9.03-35.3 10.2-35.35 11-35.4L11-35.4 22.35-5.5 21.5-5.1 32.75-35.25Q33.35-35.25 33.93-35.25 34.5-35.25 35.1-35.25L35.1-35.25Q36.85-35.25 38.58-35.3 40.3-35.35 41.45-35.4ZM70.6-35.4L70.6-35.4Q70.4-33.65 70.32-32 70.25-30.35 70.25-29.5L70.25-29.5Q70.25-28.6 70.3-27.78 70.35-26.95 70.4-26.4L70.4-26.4 69.25-26.4Q68.95-29.35 68.4-31.08 67.85-32.8 66.52-33.52 65.2-34.25 62.55-34.25L62.55-34.25 58.4-34.25Q56.7-34.25 55.82-33.98 54.95-33.7 54.65-32.83 54.35-31.95 54.35-30.1L54.35-30.1 54.35-5.3Q54.35-3.5 54.65-2.6 54.95-1.7 55.82-1.43 56.7-1.15 58.4-1.15L58.4-1.15 62.05-1.15Q65.2-1.15 66.82-2 68.45-2.85 69.17-4.78 69.9-6.7 70.25-10L70.25-10 71.4-10Q71.25-8.65 71.25-6.4L71.25-6.4Q71.25-5.45 71.32-3.68 71.4-1.9 71.6 0L71.6 0Q69.05-0.1 65.85-0.13 62.65-0.15 60.15-0.15L60.15-0.15Q58.65-0.15 56.17-0.15 53.7-0.15 50.9-0.13 48.1-0.1 45.65 0L45.65 0 45.65-1Q47.35-1.1 48.22-1.4 49.1-1.7 49.4-2.6 49.7-3.5 49.7-5.3L49.7-5.3 49.7-30.1Q49.7-31.95 49.4-32.83 49.1-33.7 48.22-34.02 47.35-34.35 45.65-34.4L45.65-34.4 45.65-35.4Q48.1-35.35 50.9-35.3 53.7-35.25 56.17-35.25 58.65-35.25 60.15-35.25L60.15-35.25Q62.45-35.25 65.37-35.27 68.3-35.3 70.6-35.4ZM52.85-18.3L62-18.3Q62-18.3 62-17.8 62-17.3 62-17.3L62-17.3 52.85-17.3Q52.85-17.3 52.85-17.8 52.85-18.3 52.85-18.3L52.85-18.3ZM62.3-24.9L63.45-24.9Q63.25-22.05 63.27-20.55 63.3-19.05 63.3-17.8L63.3-17.8Q63.3-16.55 63.35-15.05 63.4-13.55 63.6-10.7L63.6-10.7 62.45-10.7Q62.25-12.3 61.97-13.83 61.7-15.35 60.77-16.32 59.85-17.3 57.65-17.3L57.65-17.3 57.65-18.3Q59.85-18.3 60.72-19.45 61.6-20.6 61.85-22.15 62.1-23.7 62.3-24.9L62.3-24.9ZM89.75-35.4L89.75-35.4Q98.7-35.4 103.05-30.93 107.4-26.45 107.4-18.1L107.4-18.1Q107.4-12.65 105.27-8.58 103.15-4.5 99.09-2.25 95.05 0 89.3 0L89.3 0Q88.2 0 86.05-0.08 83.9-0.15 82.3-0.15L82.3-0.15Q80.55-0.15 78.84-0.13 77.15-0.1 76.09 0L76.09 0 76.09-1Q77.8-1.1 78.67-1.4 79.55-1.7 79.84-2.6 80.15-3.5 80.15-5.3L80.15-5.3 80.15-30.1Q80.15-31.95 79.84-32.83 79.55-33.7 78.67-34.02 77.8-34.35 76.09-34.4L76.09-34.4 76.09-35.4Q77.15-35.35 78.84-35.27 80.55-35.2 82.2-35.25L82.2-35.25Q83.95-35.3 86.15-35.35 88.34-35.4 89.75-35.4ZM88.5-34.5L88.5-34.5Q86.2-34.5 85.5-33.65 84.8-32.8 84.8-30.2L84.8-30.2 84.8-5.2Q84.8-2.6 85.52-1.75 86.25-0.9 88.55-0.9L88.55-0.9Q94-0.9 97-2.88 100-4.85 101.2-8.65 102.4-12.45 102.4-17.9L102.4-17.9Q102.4-26.3 99.32-30.4 96.25-34.5 88.5-34.5ZM124.99-35.4L124.99-35.4 124.99-34.4Q123.29-34.35 122.42-34.02 121.54-33.7 121.24-32.83 120.94-31.95 120.94-30.1L120.94-30.1 120.94-5.3Q120.94-3.5 121.24-2.6 121.54-1.7 122.42-1.4 123.29-1.1 124.99-1L124.99-1 124.99 0Q123.84-0.1 122.12-0.13 120.39-0.15 118.64-0.15L118.64-0.15Q116.69-0.15 114.99-0.13 113.29-0.1 112.24 0L112.24 0 112.24-1Q113.94-1.1 114.82-1.4 115.69-1.7 115.99-2.6 116.29-3.5 116.29-5.3L116.29-5.3 116.29-30.1Q116.29-31.95 115.99-32.83 115.69-33.7 114.82-34.02 113.94-34.35 112.24-34.4L112.24-34.4 112.24-35.4Q113.29-35.35 114.99-35.3 116.69-35.25 118.64-35.25L118.64-35.25Q120.39-35.25 122.12-35.3 123.84-35.35 124.99-35.4ZM143.24-35.65L143.24-35.65 155.44-4.2Q156.19-2.3 157.14-1.68 158.09-1.05 158.89-1L158.89-1 158.89 0Q157.89-0.1 156.44-0.13 154.99-0.15 153.54-0.15L153.54-0.15Q151.59-0.15 149.89-0.13 148.19-0.1 147.14 0L147.14 0 147.14-1Q149.69-1.1 150.39-1.88 151.09-2.65 150.09-5.2L150.09-5.2 140.79-30.05 141.59-30.7 132.89-8.1Q131.84-5.4 131.89-3.88 131.94-2.35 133.04-1.7 134.14-1.05 136.24-1L136.24-1 136.24 0Q134.84-0.1 133.32-0.13 131.79-0.15 130.49-0.15L130.49-0.15Q129.24-0.15 128.37-0.13 127.49-0.1 126.74 0L126.74 0 126.74-1Q127.74-1.25 128.79-2.18 129.84-3.1 130.69-5.35L130.69-5.35 142.44-35.65Q142.64-35.65 142.84-35.65 143.04-35.65 143.24-35.65ZM134.94-14.4L149.34-14.4 149.34-13.4 134.44-13.4 134.94-14.4Z" fill="#89939e" data-fill-palette-color="primary"></path><path d="M171.69-35.95L171.69-35.95Q174.19-35.95 175.49-35.38 176.79-34.8 177.79-34.1L177.79-34.1Q178.39-33.75 178.77-33.58 179.14-33.4 179.49-33.4L179.49-33.4Q180.29-33.4 180.59-35.6L180.59-35.6 181.74-35.6Q181.69-34.75 181.62-33.58 181.54-32.4 181.52-30.48 181.49-28.55 181.49-25.4L181.49-25.4 180.34-25.4Q180.19-27.8 179.29-30 178.39-32.2 176.67-33.6 174.94-35 172.14-35L172.14-35Q169.49-35 167.77-33.4 166.04-31.8 166.04-29.2L166.04-29.2Q166.04-26.95 167.19-25.43 168.34-23.9 170.27-22.68 172.19-21.45 174.44-20.05L174.44-20.05Q177.04-18.45 179.07-16.88 181.09-15.3 182.27-13.4 183.44-11.5 183.44-8.8L183.44-8.8Q183.44-5.6 181.99-3.5 180.54-1.4 178.14-0.35 175.74 0.7 172.84 0.7L172.84 0.7Q170.19 0.7 168.64 0.1 167.09-0.5 165.99-1.15L165.99-1.15Q164.89-1.85 164.29-1.85L164.29-1.85Q163.49-1.85 163.19 0.35L163.19 0.35 162.04 0.35Q162.14-0.7 162.17-2.13 162.19-3.55 162.22-5.85 162.24-8.15 162.24-11.65L162.24-11.65 163.39-11.65Q163.59-8.65 164.52-6.05 165.44-3.45 167.36-1.88 169.29-0.3 172.49-0.3L172.49-0.3Q174.94-0.3 176.96-1.88 178.99-3.45 178.99-6.95L178.99-6.95Q178.99-10 176.84-12 174.69-14 171.19-16.1L171.19-16.1Q168.84-17.55 166.79-19.05 164.74-20.55 163.52-22.53 162.29-24.5 162.29-27.3L162.29-27.3Q162.29-30.25 163.62-32.18 164.94-34.1 167.09-35.02 169.24-35.95 171.69-35.95ZM204.44-36.1L204.44-36.1Q209.19-36.1 212.76-33.95 216.34-31.8 218.31-27.78 220.29-23.75 220.29-18L220.29-18Q220.29-12.4 218.26-8.2 216.24-4 212.64-1.65 209.04 0.7 204.39 0.7L204.39 0.7Q199.64 0.7 196.06-1.45 192.49-3.6 190.51-7.65 188.54-11.7 188.54-17.4L188.54-17.4Q188.54-23 190.59-27.2 192.64-31.4 196.21-33.75 199.79-36.1 204.44-36.1ZM204.24-35.2L204.24-35.2Q200.99-35.2 198.59-32.95 196.19-30.7 194.86-26.75 193.54-22.8 193.54-17.6L193.54-17.6Q193.54-12.3 195.01-8.38 196.49-4.45 199.01-2.33 201.54-0.2 204.59-0.2L204.59-0.2Q207.84-0.2 210.24-2.45 212.64-4.7 213.96-8.68 215.29-12.65 215.29-17.8L215.29-17.8Q215.29-23.15 213.81-27.05 212.34-30.95 209.84-33.08 207.34-35.2 204.24-35.2ZM249.98-35.4L249.98-35.4Q249.79-33.5 249.71-31.73 249.64-29.95 249.64-29L249.64-29Q249.64-27.8 249.69-26.75 249.73-25.7 249.79-24.9L249.79-24.9 248.64-24.9Q248.29-28.4 247.69-30.43 247.09-32.45 245.59-33.35 244.09-34.25 240.94-34.25L240.94-34.25 237.79-34.25Q236.09-34.25 235.21-33.98 234.34-33.7 234.04-32.83 233.73-31.95 233.73-30.1L233.73-30.1 233.73-5.3Q233.73-3.5 234.11-2.6 234.48-1.7 235.59-1.4 236.69-1.1 238.79-1L238.79-1 238.79 0Q237.48-0.1 235.48-0.13 233.48-0.15 231.44-0.15L231.44-0.15Q229.48-0.15 227.78-0.13 226.09-0.1 225.03 0L225.03 0 225.03-1Q226.73-1.1 227.61-1.4 228.48-1.7 228.78-2.6 229.09-3.5 229.09-5.3L229.09-5.3 229.09-30.1Q229.09-31.95 228.78-32.83 228.48-33.7 227.61-34.02 226.73-34.35 225.03-34.4L225.03-34.4 225.03-35.4Q227.48-35.35 230.28-35.3 233.09-35.25 235.56-35.25 238.04-35.25 239.54-35.25L239.54-35.25Q241.84-35.25 244.76-35.27 247.69-35.3 249.98-35.4ZM232.23-17.8L242.23-17.8Q242.23-17.8 242.23-17.3 242.23-16.8 242.23-16.8L242.23-16.8 232.23-16.8Q232.23-16.8 232.23-17.3 232.23-17.8 232.23-17.8L232.23-17.8ZM242.04-24.4L243.19-24.4Q242.98-21.55 243.01-20.05 243.04-18.55 243.04-17.3L243.04-17.3Q243.04-16.05 243.09-14.55 243.14-13.05 243.34-10.2L243.34-10.2 242.19-10.2Q241.98-11.8 241.71-13.33 241.44-14.85 240.51-15.83 239.59-16.8 237.39-16.8L237.39-16.8 237.39-17.8Q239.59-17.8 240.46-18.95 241.34-20.1 241.59-21.65 241.84-23.2 242.04-24.4L242.04-24.4ZM280.98-35.4L280.98-35.4Q280.78-33.5 280.71-31.73 280.63-29.95 280.63-29L280.63-29Q280.63-27.8 280.68-26.75 280.73-25.7 280.78-24.9L280.78-24.9 279.63-24.9Q279.28-28.4 278.68-30.43 278.08-32.45 276.58-33.35 275.08-34.25 271.93-34.25L271.93-34.25 269.23-34.25 269.23-5.8Q269.23-3.8 269.61-2.8 269.98-1.8 271.08-1.45 272.18-1.1 274.28-1L274.28-1 274.28 0Q272.98-0.1 270.98-0.13 268.98-0.15 266.93-0.15L266.93-0.15Q264.68-0.15 262.71-0.13 260.73-0.1 259.53 0L259.53 0 259.53-1Q261.63-1.1 262.73-1.45 263.83-1.8 264.21-2.8 264.58-3.8 264.58-5.8L264.58-5.8 264.58-34.25 261.88-34.25Q258.78-34.25 257.26-33.35 255.73-32.45 255.13-30.43 254.53-28.4 254.18-24.9L254.18-24.9 253.03-24.9Q253.13-25.7 253.16-26.75 253.18-27.8 253.18-29L253.18-29Q253.18-29.95 253.11-31.73 253.03-33.5 252.83-35.4L252.83-35.4Q254.93-35.35 257.41-35.3 259.88-35.25 262.38-35.25 264.88-35.25 266.93-35.25L266.93-35.25Q268.98-35.25 271.46-35.25 273.93-35.25 276.43-35.3 278.93-35.35 280.98-35.4Z" fill="#dedede" data-fill-palette-color="secondary"></path></g></svg></g></svg></g></svg></g></svg></g><g transform="matrix(1,0,0,1,407.8912629571053,0)"><svg viewBox="0 0 38.79747579786551 72.42195482268228" height="72.42195482268228" width="38.79747579786551"><g><svg xmlns="http://www.w3.org/2000/svg" viewBox="17 4 30 56" x="0" y="0" height="72.42195482268228" width="38.79747579786551" class="icon-icon-0" data-fill-palette-color="accent" id="icon-0"><polygon points="20.414 60 43.586 60 45.586 58 18.414 58 20.414 60" fill="#dedede" data-fill-palette-color="accent"></polygon><path d="M20 42c0-4.851 3.161-8.8 6.219-12.625C29.192 25.659 32 22.149 32 18c0-7.561-5.337-9.714-6.161-10H17V56h8.625A21.7 21.7 0 0 1 20 42ZM19 54V52h2v2Z" fill="#dedede" data-fill-palette-color="accent"></path><path d="M40.3 8C42.085 9.7 44 12.746 44 18c0 4.851-3.161 8.8-6.219 12.625C34.808 34.341 32 37.851 32 42c0 7.649 7.909 13.1 9.292 14H47V8ZM45 54H43V52h2Z" fill="#dedede" data-fill-palette-color="accent"></path><path d="M34 18c0 4.851-3.161 8.8-6.219 12.625C24.808 34.341 22 37.851 22 42c0 7.492 5.176 12.847 6.389 14H37.9C34.792 53.476 30 48.528 30 42c0-4.851 3.161-8.8 6.219-12.625C39.192 25.659 42 22.149 42 18c0-7.5-4.406-9.673-5.188-10H29.685C31.755 9.718 34 12.774 34 18Z" fill="#dedede" data-fill-palette-color="accent"></path><polygon points="43.586 4 20.414 4 18.414 6 45.586 6 43.586 4" fill="#dedede" data-fill-palette-color="accent"></polygon></svg></g></svg></g></svg></g></svg><rect width="395.52" height="64.12593174232677" fill="none" stroke="none" visibility="hidden"></rect></g></svg></g></svg>