<svg xmlns="http://www.w3.org/2000/svg" version="1.1" xmlns:xlink="http://www.w3.org/1999/xlink" xmlns:svgjs="http://svgjs.dev/svgjs" width="1000" height="1000" viewBox="0 0 1000 1000"><rect width="1000" height="1000" fill="#0b311f"></rect><g transform="matrix(0.7,0,0,0.7,149.57575757575756,436.8715965913792)"><svg xmlns="http://www.w3.org/2000/svg" version="1.1" xmlns:xlink="http://www.w3.org/1999/xlink" xmlns:svgjs="http://svgjs.com/svgjs" viewBox="0 0 396 72" data-background-color="#0b311f" preserveAspectRatio="xMidYMid meet" height="181" width="1000"><defs></defs><g id="tight-bounds" transform="matrix(1,0,0,1,0.2400000000000091,-0.12592702903947384)"><svg viewBox="0 0 395.52 72.25185405807892" height="72.25185405807892" width="395.52"><g><svg viewBox="0 0 395.52 72.25185405807892" height="72.25185405807892" width="395.52"><g><svg viewBox="0 0 395.52 72.25185405807892" height="72.25185405807892" width="395.52"><g><svg viewBox="0 0 395.52 72.25185405807892" height="72.25185405807892" width="395.52"><g><svg viewBox="0 0 395.52 72.25185405807892" height="72.25185405807892" width="395.52"><g transform="matrix(1,0,0,1,0,0)"><svg width="395.52" viewBox="1.8 -36.1 201.44 36.800000000000004" height="72.25185405807892" data-palette-color="#fffafe"><path d="M1.8-34.4L1.8-35.4Q3.05-35.35 5-35.3 6.95-35.25 8.9-35.25L8.9-35.25Q11.35-35.25 13.55-35.3 15.75-35.35 16.65-35.35L16.65-35.35Q23.35-35.35 26.63-32.6 29.9-29.85 29.9-25.5L29.9-25.5Q29.9-23.7 29.25-21.73 28.6-19.75 27-18.07 25.4-16.4 22.63-15.35 19.85-14.3 15.55-14.3L15.55-14.3 10.55-14.3 10.55-15.3 15.05-15.3Q18.2-15.3 19.88-16.65 21.55-18 22.13-20.2 22.7-22.4 22.7-24.95L22.7-24.95Q22.7-29.7 21.15-32.05 19.6-34.4 15.8-34.4L15.8-34.4Q13.75-34.4 13.13-33.55 12.5-32.7 12.5-30.1L12.5-30.1 12.5-5.5Q12.5-3.6 12.9-2.65 13.3-1.7 14.45-1.4 15.6-1.1 17.75-1.05L17.75-1.05 17.75 0Q16.3-0.1 14-0.13 11.7-0.15 9.25-0.15L9.25-0.15Q7.15-0.15 5.2-0.13 3.25-0.1 1.8 0L1.8 0 1.8-1Q3.45-1.1 4.28-1.4 5.1-1.7 5.38-2.6 5.65-3.5 5.65-5.3L5.65-5.3 5.65-30.1Q5.65-31.95 5.38-32.83 5.1-33.7 4.28-34.02 3.45-34.35 1.8-34.4L1.8-34.4ZM32.75-34.4L32.75-35.4Q34-35.35 35.95-35.3 37.9-35.25 39.85-35.25L39.85-35.25Q42.3-35.25 44.5-35.3 46.7-35.35 47.6-35.35L47.6-35.35Q54.3-35.35 57.57-33 60.85-30.65 60.85-26.65L60.85-26.65Q60.85-25 60.2-23.28 59.55-21.55 57.95-20.1 56.35-18.65 53.57-17.73 50.8-16.8 46.5-16.8L46.5-16.8 41.7-16.8 41.7-17.8 46-17.8Q49.15-17.8 50.82-18.93 52.5-20.05 53.07-21.93 53.65-23.8 53.65-26.1L53.65-26.1Q53.65-30.05 52.1-32.23 50.55-34.4 46.75-34.4L46.75-34.4Q44.7-34.4 44.07-33.55 43.45-32.7 43.45-30.1L43.45-30.1 43.45-5.3Q43.45-3.5 43.75-2.6 44.05-1.7 44.87-1.4 45.7-1.1 47.3-1L47.3-1 47.3 0Q46.05-0.1 44.1-0.13 42.15-0.15 40.15-0.15L40.15-0.15Q37.9-0.15 35.95-0.13 34-0.1 32.75 0L32.75 0 32.75-1Q34.4-1.1 35.22-1.4 36.05-1.7 36.32-2.6 36.6-3.5 36.6-5.3L36.6-5.3 36.6-30.1Q36.6-31.95 36.32-32.83 36.05-33.7 35.22-34.02 34.4-34.35 32.75-34.4L32.75-34.4ZM41.8-16.8L41.7-17.65Q44.05-17.55 45.62-17.43 47.2-17.3 48.32-17.2 49.45-17.1 50.35-16.95L50.35-16.95Q54.5-16.55 56.47-15.03 58.45-13.5 59.1-10.4L59.1-10.4 60.25-5.25Q60.7-3.2 61.22-2.33 61.75-1.45 62.75-1.5L62.75-1.5Q63.45-1.5 63.95-1.88 64.45-2.25 64.95-2.9L64.95-2.9 65.65-2.3Q64.4-0.75 63-0.03 61.6 0.7 59.45 0.7L59.45 0.7Q57.05 0.7 55.4-0.43 53.75-1.55 53.15-4.7L53.15-4.7 52.2-9.7Q51.8-11.8 51.27-13.4 50.75-15 49.85-15.9 48.95-16.8 47.2-16.8L47.2-16.8 41.8-16.8ZM84.2-36.1L84.2-36.1Q89.3-36.1 93.15-33.95 97-31.8 99.12-27.78 101.25-23.75 101.25-18L101.25-18Q101.25-12.4 99.07-8.2 96.9-4 93.02-1.65 89.15 0.7 84.15 0.7L84.15 0.7Q79.05 0.7 75.2-1.45 71.34-3.6 69.22-7.65 67.09-11.7 67.09-17.4L67.09-17.4Q67.09-23 69.3-27.2 71.5-31.4 75.34-33.75 79.2-36.1 84.2-36.1ZM84-35.2L84-35.2Q81.05-35.2 78.87-32.95 76.7-30.7 75.5-26.75 74.3-22.8 74.3-17.6L74.3-17.6Q74.3-12.3 75.65-8.38 77-4.45 79.3-2.33 81.59-0.2 84.34-0.2L84.34-0.2Q87.3-0.2 89.47-2.45 91.65-4.7 92.84-8.68 94.05-12.65 94.05-17.8L94.05-17.8Q94.05-23.15 92.7-27.05 91.34-30.95 89.07-33.08 86.8-35.2 84-35.2ZM136.39-35.4L136.39-35.4 136.39-34.4Q134.74-34.1 133.04-33.15 131.34-32.2 129.54-30.05L129.54-30.05 120.09-18.45 122.34-22.05 134.29-4.05Q135.09-2.9 135.94-2.2 136.79-1.5 138.14-1L138.14-1 138.14 0Q136.59-0.1 134.59-0.13 132.59-0.15 130.94-0.15L130.94-0.15Q129.99-0.15 128.57-0.13 127.14-0.1 124.99 0L124.99 0 124.99-1Q126.99-1.1 127.39-1.58 127.79-2.05 127.04-3.25L127.04-3.25 119.74-14.75Q118.94-16.05 118.32-16.7 117.69-17.35 117.04-17.57 116.39-17.8 115.44-17.85L115.44-17.85 115.44-18.85Q117.54-18.95 119.19-19.95 120.84-20.95 122.49-22.9L122.49-22.9 126.04-27.35Q127.89-29.55 128.29-31.1 128.69-32.65 127.84-33.5 126.99-34.35 124.99-34.4L124.99-34.4 124.99-35.4Q126.69-35.35 128.29-35.3 129.89-35.25 131.79-35.25L131.79-35.25Q134.69-35.25 136.39-35.4ZM119.49-35.4L119.49-35.4 119.49-34.4Q117.89-34.35 117.07-34.02 116.24-33.7 115.94-32.83 115.64-31.95 115.64-30.1L115.64-30.1 115.64-5.3Q115.64-3.5 115.94-2.6 116.24-1.7 117.07-1.4 117.89-1.1 119.49-1L119.49-1 119.49 0Q118.24-0.1 116.29-0.13 114.34-0.15 112.34-0.15L112.34-0.15Q110.09-0.15 108.14-0.13 106.19-0.1 104.94 0L104.94 0 104.94-1Q106.59-1.1 107.42-1.4 108.24-1.7 108.52-2.6 108.79-3.5 108.79-5.3L108.79-5.3 108.79-30.1Q108.79-31.95 108.52-32.83 108.24-33.7 107.42-34.02 106.59-34.35 104.94-34.4L104.94-34.4 104.94-35.4Q106.19-35.35 108.14-35.3 110.09-35.25 112.34-35.25L112.34-35.25Q114.34-35.25 116.29-35.3 118.24-35.35 119.49-35.4ZM168.24-35.4L168.24-35.4 168.24-34.4Q167.24-34.1 166.14-32.88 165.04-31.65 163.74-29.1L163.74-29.1 154.09-9.95 152.24-9.95 140.54-31.55Q139.59-33.3 138.89-33.83 138.19-34.35 137.64-34.35L137.64-34.35 137.64-35.4Q138.84-35.35 140.16-35.27 141.49-35.2 143.04-35.2L143.04-35.2Q145.04-35.2 147.34-35.25 149.64-35.3 151.64-35.4L151.64-35.4 151.64-34.35Q150.39-34.35 149.39-34.15 148.39-33.95 148.04-33.3 147.69-32.65 148.29-31.4L148.29-31.4 156.39-15.9 155.19-14.5 160.89-25.8Q162.54-29.1 162.61-30.95 162.69-32.8 161.56-33.58 160.44-34.35 158.39-34.4L158.39-34.4 158.39-35.4Q160.04-35.35 161.51-35.3 162.99-35.25 164.44-35.25L164.44-35.25Q165.64-35.25 166.56-35.3 167.49-35.35 168.24-35.4ZM154.09-12.45L157.14-17 157.14-5.3Q157.14-3.5 157.44-2.6 157.74-1.7 158.56-1.4 159.39-1.1 160.99-1L160.99-1 160.99 0Q159.74-0.1 157.74-0.13 155.74-0.15 153.74-0.15L153.74-0.15Q151.59-0.15 149.61-0.13 147.64-0.1 146.44 0L146.44 0 146.44-1Q148.09-1.1 148.91-1.4 149.74-1.7 150.01-2.6 150.29-3.5 150.29-5.3L150.29-5.3 150.29-15.55 154.09-12.45ZM186.19-36.1L186.19-36.1Q191.29-36.1 195.14-33.95 198.99-31.8 201.11-27.78 203.24-23.75 203.24-18L203.24-18Q203.24-12.4 201.06-8.2 198.89-4 195.01-1.65 191.14 0.7 186.14 0.7L186.14 0.7Q181.04 0.7 177.19-1.45 173.34-3.6 171.21-7.65 169.09-11.7 169.09-17.4L169.09-17.4Q169.09-23 171.29-27.2 173.49-31.4 177.34-33.75 181.19-36.1 186.19-36.1ZM185.99-35.2L185.99-35.2Q183.04-35.2 180.86-32.95 178.69-30.7 177.49-26.75 176.29-22.8 176.29-17.6L176.29-17.6Q176.29-12.3 177.64-8.38 178.99-4.45 181.29-2.33 183.59-0.2 186.34-0.2L186.34-0.2Q189.29-0.2 191.46-2.45 193.64-4.7 194.84-8.68 196.04-12.65 196.04-17.8L196.04-17.8Q196.04-23.15 194.69-27.05 193.34-30.95 191.06-33.08 188.79-35.2 185.99-35.2Z" opacity="1" transform="matrix(1,0,0,1,0,0)" fill="#fffafe" class="undefined-text-0" data-fill-palette-color="primary" id="text-0"></path></svg></g></svg></g></svg></g></svg></g><g></g></svg></g></svg><rect width="395.52" height="72.25185405807892" fill="none" stroke="none" visibility="hidden"></rect></g></svg></g></svg>